<?xml version="1.0" standalone="no"?>
<!DOCTYPE svg PUBLIC "-//W3C//DTD SVG 20010904//EN"
 "http://www.w3.org/TR/2001/REC-SVG-20010904/DTD/svg10.dtd">
<svg version="1.0" xmlns="http://www.w3.org/2000/svg"
 width="379.000000pt" height="379.000000pt" viewBox="0 0 379.000000 379.000000"
 preserveAspectRatio="xMidYMid meet">
<metadata>
Created by potrace 1.14, written by Peter Selinger 2001-2017
</metadata>
<g transform="translate(0.000000,379.000000) scale(0.100000,-0.100000)"
fill="#000000" stroke="none">
<path d="M781 3775 c-335 -73 -601 -299 -711 -604 -61 -168 -59 -126 -57
-1306 3 -1193 -3 -1093 67 -1273 91 -237 304 -443 551 -533 165 -60 126 -58
1289 -56 981 3 1070 4 1125 20 280 82 481 239 613 477 33 59 85 200 98 265 13
67 16 2157 3 2234 -46 267 -218 517 -451 656 -81 48 -198 97 -260 109 -18 3
-44 9 -58 13 -14 4 -502 8 -1085 10 -873 1 -1071 -1 -1124 -12z"/>
</g>
</svg>
